<?xml version="1.0" encoding="utf-8" standalone="no"?>
<!DOCTYPE svg PUBLIC "-//W3C//DTD SVG 1.1//EN"
  "http://www.w3.org/Graphics/SVG/1.1/DTD/svg11.dtd">
<svg height="360pt" version="1.1" viewBox="0 0 720 360" width="720pt" xmlns="http://www.w3.org/2000/svg" xmlns:xlink="http://www.w3.org/1999/xlink">
 <metadata>
  <rdf:RDF xmlns:cc="http://creativecommons.org/ns#" xmlns:dc="http://purl.org/dc/elements/1.1/" xmlns:rdf="http://www.w3.org/1999/02/22-rdf-syntax-ns#">
   <cc:Work>
    <dc:type rdf:resource="http://purl.org/dc/dcmitype/StillImage"/>
    <dc:date>2021-06-28T02:15:55.627723</dc:date>
    <dc:format>image/svg+xml</dc:format>
    <dc:creator>
     <cc:Agent>
      <dc:title>Matplotlib v3.4.1, https://matplotlib.org/</dc:title>
     </cc:Agent>
    </dc:creator>
   </cc:Work>
  </rdf:RDF>
 </metadata>
 <defs>
  <style type="text/css">*{stroke-linecap:butt;stroke-linejoin:round;}</style>
 </defs>
 <g id="figure_1">
  <g id="patch_1">
   <path d="M 0 360 
L 720 360 
L 720 0 
L 0 0 
z
" style="fill:#ffffff;"/>
  </g>
  <g id="axes_1">
   <g id="patch_2">
    <path d="M 90 320.4 
L 343.636364 320.4 
L 343.636364 43.2 
L 90 43.2 
z
" style="fill:#ffffff;"/>
   </g>
   <g id="PolyCollection_1">
    <path clip-path="url(#p597e0685c9)" d="M 134.842429 306.809823 
L 114.331125 306.809823 
L 112.062208 304.27437 
L 109.768364 301.738918 
L 107.575995 299.203465 
L 105.60757 296.668012 
L 103.965781 294.132559 
L 102.721758 291.597107 
L 101.909759 289.061654 
L 101.528926 286.526201 
L 101.550699 283.990748 
L 101.929118 281.455296 
L 102.610852 278.919843 
L 103.542465 276.38439 
L 104.673785 273.848937 
L 105.957755 271.313485 
L 107.348287 268.778032 
L 108.798081 266.242579 
L 110.258048 263.707126 
L 111.679113 261.171674 
L 113.016126 258.636221 
L 114.232772 256.100768 
L 115.305994 253.565315 
L 116.228565 251.029862 
L 117.008996 248.49441 
L 117.668728 245.958957 
L 118.237191 243.423504 
L 118.745786 240.888051 
L 119.222006 238.352599 
L 119.684766 235.817146 
L 120.141715 233.281693 
L 120.588876 230.74624 
L 121.012539 228.210788 
L 121.392924 225.675335 
L 121.708882 223.139882 
L 121.942695 220.604429 
L 122.084073 218.068977 
L 122.132582 215.533524 
L 122.098042 212.998071 
L 121.998886 210.462618 
L 121.858896 207.927166 
L 121.703116 205.391713 
L 121.553966 202.85626 
L 121.428461 200.320807 
L 121.337143 197.785355 
L 121.284781 195.249902 
L 121.272363 192.714449 
L 121.299518 190.178996 
L 121.366426 187.643543 
L 121.474535 185.108091 
L 121.625911 182.572638 
L 121.821573 180.037185 
L 122.059566 177.501732 
L 122.333587 174.96628 
L 122.632759 172.430827 
L 122.942704 169.895374 
L 123.247591 167.359921 
L 123.532571 164.824469 
L 123.785896 162.289016 
L 124.000246 159.753563 
L 124.173041 157.21811 
L 124.305861 154.682658 
L 124.40328 152.147205 
L 124.471508 149.611752 
L 124.517165 147.076299 
L 124.54637 144.540847 
L 124.564238 142.005394 
L 124.574698 139.469941 
L 124.580557 136.934488 
L 124.583701 134.399036 
L 124.585315 131.863583 
L 124.58611 129.32813 
L 124.586485 126.792677 
L 124.586654 124.257225 
L 124.586727 121.721772 
L 124.586756 119.186319 
L 124.586765 116.650866 
L 124.586763 114.115413 
L 124.586747 111.579961 
L 124.586707 109.044508 
L 124.586616 106.509055 
L 124.58642 103.973602 
L 124.58602 101.43815 
L 124.585234 98.902697 
L 124.583758 96.367244 
L 124.581104 93.831791 
L 124.576542 91.296339 
L 124.569048 88.760886 
L 124.557291 86.225433 
L 124.539693 83.68998 
L 124.514591 81.154528 
L 124.480519 78.619075 
L 124.436603 76.083622 
L 124.383001 73.548169 
L 124.321294 71.012717 
L 124.254694 68.477264 
L 124.187953 65.941811 
L 124.126899 63.406358 
L 124.077648 60.870906 
L 124.045599 58.335453 
L 124.034474 55.8 
L 125.139079 55.8 
L 125.139079 55.8 
L 125.127954 58.335453 
L 125.095906 60.870906 
L 125.046654 63.406358 
L 124.985601 65.941811 
L 124.91886 68.477264 
L 124.85226 71.012717 
L 124.790553 73.548169 
L 124.736951 76.083622 
L 124.693035 78.619075 
L 124.658963 81.154528 
L 124.633861 83.68998 
L 124.616263 86.225433 
L 124.604506 88.760886 
L 124.597012 91.296339 
L 124.59245 93.831791 
L 124.589796 96.367244 
L 124.588319 98.902697 
L 124.587534 101.43815 
L 124.587133 103.973602 
L 124.586938 106.509055 
L 124.586847 109.044508 
L 124.586807 111.579961 
L 124.586791 114.115413 
L 124.586789 116.650866 
L 124.586798 119.186319 
L 124.586827 121.721772 
L 124.5869 124.257225 
L 124.587069 126.792677 
L 124.587444 129.32813 
L 124.588238 131.863583 
L 124.589853 134.399036 
L 124.592996 136.934488 
L 124.598856 139.469941 
L 124.609315 142.005394 
L 124.627183 144.540847 
L 124.656389 147.076299 
L 124.702045 149.611752 
L 124.770274 152.147205 
L 124.867693 154.682658 
L 125.000512 157.21811 
L 125.173308 159.753563 
L 125.387658 162.289016 
L 125.640983 164.824469 
L 125.925963 167.359921 
L 126.23085 169.895374 
L 126.540795 172.430827 
L 126.839967 174.96628 
L 127.113988 177.501732 
L 127.351981 180.037185 
L 127.547643 182.572638 
L 127.699019 185.108091 
L 127.807128 187.643543 
L 127.874036 190.178996 
L 127.901191 192.714449 
L 127.888773 195.249902 
L 127.836411 197.785355 
L 127.745093 200.320807 
L 127.619588 202.85626 
L 127.470438 205.391713 
L 127.314658 207.927166 
L 127.174667 210.462618 
L 127.075512 212.998071 
L 127.040972 215.533524 
L 127.089481 218.068977 
L 127.230859 220.604429 
L 127.464672 223.139882 
L 127.78063 225.675335 
L 128.161015 228.210788 
L 128.584678 230.74624 
L 129.031839 233.281693 
L 129.488788 235.817146 
L 129.951548 238.352599 
L 130.427768 240.888051 
L 130.936363 243.423504 
L 131.504825 245.958957 
L 132.164558 248.49441 
L 132.944989 251.029862 
L 133.867559 253.565315 
L 134.940782 256.100768 
L 136.157428 258.636221 
L 137.49444 261.171674 
L 138.915506 263.707126 
L 140.375473 266.242579 
L 141.825267 268.778032 
L 143.215799 271.313485 
L 144.499769 273.848937 
L 145.631089 276.38439 
L 146.562702 278.919843 
L 147.244435 281.455296 
L 147.622855 283.990748 
L 147.644628 286.526201 
L 147.263795 289.061654 
L 146.451796 291.597107 
L 145.207773 294.132559 
L 143.565984 296.668012 
L 141.597558 299.203465 
L 139.405189 301.738918 
L 137.111346 304.27437 
L 134.842429 306.809823 
z
" style="fill:#1f77b4;fill-opacity:0.3;"/>
   </g>
   <g id="PolyCollection_2">
    <path clip-path="url(#p597e0685c9)" d="M 234.437742 304.82947 
L 199.198622 304.82947 
L 197.546752 304.509412 
L 196.123267 304.189355 
L 194.993192 303.869298 
L 194.206531 303.549241 
L 193.793311 303.229184 
L 193.760331 302.909127 
L 194.090045 302.589069 
L 194.741807 302.269012 
L 195.655322 301.948955 
L 196.755943 301.628898 
L 197.96118 301.308841 
L 199.187692 300.988784 
L 200.358018 300.668727 
L 201.40638 300.348669 
L 202.283071 300.028612 
L 202.957153 299.708555 
L 203.417374 299.388498 
L 203.671417 299.068441 
L 203.743712 298.748384 
L 203.672119 298.428326 
L 203.50384 298.108269 
L 203.290919 297.788212 
L 203.085668 297.468155 
L 202.936376 297.148098 
L 202.883602 296.828041 
L 202.957321 296.507984 
L 203.175141 296.187926 
L 203.541706 295.867869 
L 204.049291 295.547812 
L 204.679482 295.227755 
L 205.405711 294.907698 
L 206.196317 294.587641 
L 207.017805 294.267583 
L 207.837907 293.947526 
L 208.628192 293.627469 
L 209.365974 293.307412 
L 210.035441 292.987355 
L 210.627993 292.667298 
L 211.141869 292.347241 
L 211.581225 292.027183 
L 211.954826 291.707126 
L 212.274531 291.387069 
L 212.553751 291.067012 
L 212.806003 290.746955 
L 213.043674 290.426898 
L 213.277072 290.106841 
L 213.513796 289.786783 
L 213.758445 289.466726 
L 214.012646 289.146669 
L 214.275353 288.826612 
L 214.543365 288.506555 
L 214.811978 288.186498 
L 215.075695 287.86644 
L 215.328904 287.546383 
L 215.566471 287.226326 
L 215.784192 286.906269 
L 215.979072 286.586212 
L 216.149442 286.266155 
L 216.294918 285.946098 
L 216.416241 285.62604 
L 216.51504 285.305983 
L 216.593544 284.985926 
L 216.654308 284.665869 
L 216.699945 284.345812 
L 216.732919 284.025755 
L 216.755378 283.705697 
L 216.769052 283.38564 
L 216.775192 283.065583 
L 216.774562 282.745526 
L 216.767468 282.425469 
L 216.753817 282.105412 
L 216.733212 281.785355 
L 216.705069 281.465297 
L 216.668759 281.14524 
L 216.623764 280.825183 
L 216.569831 280.505126 
L 216.507111 280.185069 
L 216.436268 279.865012 
L 216.358522 279.544954 
L 216.275629 279.224897 
L 216.189772 278.90484 
L 216.103384 278.584783 
L 216.018909 278.264726 
L 215.93854 277.944669 
L 215.863982 277.624612 
L 215.796276 277.304554 
L 215.735735 276.984497 
L 215.682 276.66444 
L 215.634226 276.344383 
L 215.591376 276.024326 
L 215.552556 275.704269 
L 215.517347 275.384211 
L 215.48605 275.064154 
L 215.459811 274.744097 
L 215.440561 274.42404 
L 215.430808 274.103983 
L 215.433284 273.783926 
L 215.450515 273.463869 
L 215.484394 273.143811 
L 218.151969 273.143811 
L 218.151969 273.143811 
L 218.185848 273.463869 
L 218.203079 273.783926 
L 218.205555 274.103983 
L 218.195803 274.42404 
L 218.176553 274.744097 
L 218.150313 275.064154 
L 218.119017 275.384211 
L 218.083807 275.704269 
L 218.044987 276.024326 
L 218.002137 276.344383 
L 217.954364 276.66444 
L 217.900628 276.984497 
L 217.840087 277.304554 
L 217.772382 277.624612 
L 217.697823 277.944669 
L 217.617454 278.264726 
L 217.532979 278.584783 
L 217.446592 278.90484 
L 217.360735 279.224897 
L 217.277841 279.544954 
L 217.200095 279.865012 
L 217.129252 280.185069 
L 217.066533 280.505126 
L 217.012599 280.825183 
L 216.967605 281.14524 
L 216.931295 281.465297 
L 216.903152 281.785355 
L 216.882546 282.105412 
L 216.868895 282.425469 
L 216.861801 282.745526 
L 216.861172 283.065583 
L 216.867312 283.38564 
L 216.880985 283.705697 
L 216.903445 284.025755 
L 216.936418 284.345812 
L 216.982056 284.665869 
L 217.042819 284.985926 
L 217.121324 285.305983 
L 217.220123 285.62604 
L 217.341446 285.946098 
L 217.486922 286.266155 
L 217.657292 286.586212 
L 217.852172 286.906269 
L 218.069893 287.226326 
L 218.30746 287.546383 
L 218.560669 287.86644 
L 218.824385 288.186498 
L 219.092999 288.506555 
L 219.361011 288.826612 
L 219.623717 289.146669 
L 219.877918 289.466726 
L 220.122568 289.786783 
L 220.359292 290.106841 
L 220.59269 290.426898 
L 220.830361 290.746955 
L 221.082613 291.067012 
L 221.361833 291.387069 
L 221.681538 291.707126 
L 222.055138 292.027183 
L 222.494495 292.347241 
L 223.008371 292.667298 
L 223.600922 292.987355 
L 224.27039 293.307412 
L 225.008172 293.627469 
L 225.798457 293.947526 
L 226.618559 294.267583 
L 227.440046 294.587641 
L 228.230653 294.907698 
L 228.956881 295.227755 
L 229.587073 295.547812 
L 230.094658 295.867869 
L 230.461222 296.187926 
L 230.679042 296.507984 
L 230.752761 296.828041 
L 230.699987 297.148098 
L 230.550695 297.468155 
L 230.345444 297.788212 
L 230.132523 298.108269 
L 229.964245 298.428326 
L 229.892652 298.748384 
L 229.964947 299.068441 
L 230.21899 299.388498 
L 230.679211 299.708555 
L 231.353293 300.028612 
L 232.229984 300.348669 
L 233.278345 300.668727 
L 234.448671 300.988784 
L 235.675184 301.308841 
L 236.880421 301.628898 
L 237.981042 301.948955 
L 238.894557 302.269012 
L 239.546319 302.589069 
L 239.876033 302.909127 
L 239.843052 303.229184 
L 239.429833 303.549241 
L 238.643172 303.869298 
L 237.513096 304.189355 
L 236.089612 304.509412 
L 234.437742 304.82947 
z
" style="fill:#1f77b4;fill-opacity:0.3;"/>
   </g>
   <g id="PolyCollection_3">
    <path clip-path="url(#p597e0685c9)" d="M 318.038657 307.8 
L 300.060517 307.8 
L 297.338012 307.469941 
L 294.445948 307.139882 
L 291.618649 306.809823 
L 289.128161 306.479764 
L 287.239135 306.149705 
L 286.1583 305.819646 
L 285.991736 305.489587 
L 286.722236 305.159528 
L 288.213678 304.82947 
L 290.241332 304.499411 
L 292.53943 304.169352 
L 294.852721 303.839293 
L 296.97882 303.509234 
L 298.792309 303.179175 
L 300.247876 302.849116 
L 301.365954 302.519057 
L 302.208239 302.188998 
L 302.851483 301.858939 
L 303.366342 301.52888 
L 303.804971 301.198821 
L 304.197711 300.868762 
L 304.556724 300.538703 
L 304.883178 300.208644 
L 305.174709 299.878585 
L 305.430829 299.548527 
L 305.655316 299.218468 
L 305.855854 298.888409 
L 306.041906 298.55835 
L 306.222044 298.228291 
L 306.401769 297.898232 
L 306.582408 297.568173 
L 306.76124 297.238114 
L 306.932662 296.908055 
L 307.089989 296.577996 
L 307.227401 296.247937 
L 307.341599 295.917878 
L 307.432794 295.587819 
L 307.504835 295.25776 
L 307.56447 294.927701 
L 307.61992 294.597642 
L 307.679122 294.267583 
L 307.748068 293.937525 
L 307.829626 293.607466 
L 307.923122 293.277407 
L 308.024725 292.947348 
L 308.12851 292.617289 
L 308.227909 292.28723 
L 308.317171 291.957171 
L 308.392519 291.627112 
L 308.452731 291.297053 
L 308.499052 290.966994 
L 308.534496 290.636935 
L 308.562744 290.306876 
L 308.586975 289.976817 
L 308.60896 289.646758 
L 308.628717 289.316699 
L 308.644812 288.98664 
L 308.65522 288.656582 
L 308.658429 288.326523 
L 308.654427 287.996464 
L 308.645191 287.666405 
L 308.634507 287.336346 
L 308.627157 287.006287 
L 308.627705 286.676228 
L 308.639264 286.346169 
L 308.662612 286.01611 
L 308.695889 285.686051 
L 308.734937 285.355992 
L 308.77414 285.025933 
L 308.807544 284.695874 
L 308.829972 284.365815 
L 308.837952 284.035756 
L 308.830315 283.705697 
L 308.808419 283.375639 
L 308.775988 283.04558 
L 308.738574 282.715521 
L 308.702695 282.385462 
L 308.674759 282.055403 
L 308.659964 281.725344 
L 308.661387 281.395285 
L 308.679491 281.065226 
L 308.712155 280.735167 
L 308.755212 280.405108 
L 308.803305 280.075049 
L 308.850828 279.74499 
L 308.892696 279.414931 
L 308.924799 279.084872 
L 308.944125 278.754813 
L 308.948676 278.424754 
L 308.93734 278.094695 
L 308.909897 277.764637 
L 308.86721 277.434578 
L 308.81155 277.104519 
L 308.746897 276.77446 
L 308.678963 276.444401 
L 308.614801 276.114342 
L 308.561916 275.784283 
L 308.527047 275.454224 
L 308.514893 275.124165 
L 309.58428 275.124165 
L 309.58428 275.124165 
L 309.572127 275.454224 
L 309.537257 275.784283 
L 309.484373 276.114342 
L 309.42021 276.444401 
L 309.352277 276.77446 
L 309.287623 277.104519 
L 309.231964 277.434578 
L 309.189276 277.764637 
L 309.161833 278.094695 
L 309.150498 278.424754 
L 309.155048 278.754813 
L 309.174375 279.084872 
L 309.206478 279.414931 
L 309.248346 279.74499 
L 309.295869 280.075049 
L 309.343961 280.405108 
L 309.387018 280.735167 
L 309.419683 281.065226 
L 309.437787 281.395285 
L 309.43921 281.725344 
L 309.424414 282.055403 
L 309.396479 282.385462 
L 309.360599 282.715521 
L 309.323185 283.04558 
L 309.290754 283.375639 
L 309.268859 283.705697 
L 309.261221 284.035756 
L 309.269201 284.365815 
L 309.29163 284.695874 
L 309.325033 285.025933 
L 309.364237 285.355992 
L 309.403284 285.686051 
L 309.436562 286.01611 
L 309.45991 286.346169 
L 309.471468 286.676228 
L 309.472016 287.006287 
L 309.464667 287.336346 
L 309.453983 287.666405 
L 309.444746 287.996464 
L 309.440744 288.326523 
L 309.443954 288.656582 
L 309.454361 288.98664 
L 309.470456 289.316699 
L 309.490213 289.646758 
L 309.512198 289.976817 
L 309.536429 290.306876 
L 309.564678 290.636935 
L 309.600121 290.966994 
L 309.646443 291.297053 
L 309.706655 291.627112 
L 309.782003 291.957171 
L 309.871265 292.28723 
L 309.970663 292.617289 
L 310.074449 292.947348 
L 310.176051 293.277407 
L 310.269547 293.607466 
L 310.351106 293.937525 
L 310.420051 294.267583 
L 310.479254 294.597642 
L 310.534704 294.927701 
L 310.594339 295.25776 
L 310.66638 295.587819 
L 310.757574 295.917878 
L 310.871773 296.247937 
L 311.009185 296.577996 
L 311.166511 296.908055 
L 311.337934 297.238114 
L 311.516766 297.568173 
L 311.697405 297.898232 
L 311.87713 298.228291 
L 312.057267 298.55835 
L 312.243319 298.888409 
L 312.443858 299.218468 
L 312.668345 299.548527 
L 312.924464 299.878585 
L 313.215996 300.208644 
L 313.54245 300.538703 
L 313.901462 300.868762 
L 314.294203 301.198821 
L 314.732832 301.52888 
L 315.247691 301.858939 
L 315.890934 302.188998 
L 316.733219 302.519057 
L 317.851297 302.849116 
L 319.306864 303.179175 
L 321.120353 303.509234 
L 323.246453 303.839293 
L 325.559743 304.169352 
L 327.857841 304.499411 
L 329.885496 304.82947 
L 331.376937 305.159528 
L 332.107438 305.489587 
L 331.940874 305.819646 
L 330.860039 306.149705 
L 328.971013 306.479764 
L 326.480525 306.809823 
L 323.653226 307.139882 
L 320.761161 307.469941 
L 318.038657 307.8 
z
" style="fill:#1f77b4;fill-opacity:0.3;"/>
   </g>
   <g id="matplotlib.axis_1">
    <g id="xtick_1">
     <g id="line2d_1">
      <defs>
       <path d="M 0 0 
L 0 3.5 
" id="m08de98d4b8" style="stroke:#000000;stroke-width:0.8;"/>
      </defs>
      <g>
       <use style="stroke:#000000;stroke-width:0.8;" x="124.586777" xlink:href="#m08de98d4b8" y="320.4"/>
      </g>
     </g>
     <g id="text_1">
      <!-- 1st -->
      <g transform="translate(116.840683 334.998438)scale(0.1 -0.1)">
       <defs>
        <path d="M 794 531 
L 1825 531 
L 1825 4091 
L 703 3866 
L 703 4441 
L 1819 4666 
L 2450 4666 
L 2450 531 
L 3481 531 
L 3481 0 
L 794 0 
L 794 531 
z
" id="DejaVuSans-31" transform="scale(0.015625)"/>
        <path d="M 2834 3397 
L 2834 2853 
Q 2591 2978 2328 3040 
Q 2066 3103 1784 3103 
Q 1356 3103 1142 2972 
Q 928 2841 928 2578 
Q 928 2378 1081 2264 
Q 1234 2150 1697 2047 
L 1894 2003 
Q 2506 1872 2764 1633 
Q 3022 1394 3022 966 
Q 3022 478 2636 193 
Q 2250 -91 1575 -91 
Q 1294 -91 989 -36 
Q 684 19 347 128 
L 347 722 
Q 666 556 975 473 
Q 1284 391 1588 391 
Q 1994 391 2212 530 
Q 2431 669 2431 922 
Q 2431 1156 2273 1281 
Q 2116 1406 1581 1522 
L 1381 1569 
Q 847 1681 609 1914 
Q 372 2147 372 2553 
Q 372 3047 722 3315 
Q 1072 3584 1716 3584 
Q 2034 3584 2315 3537 
Q 2597 3491 2834 3397 
z
" id="DejaVuSans-73" transform="scale(0.015625)"/>
        <path d="M 1172 4494 
L 1172 3500 
L 2356 3500 
L 2356 3053 
L 1172 3053 
L 1172 1153 
Q 1172 725 1289 603 
Q 1406 481 1766 481 
L 2356 481 
L 2356 0 
L 1766 0 
Q 1100 0 847 248 
Q 594 497 594 1153 
L 594 3053 
L 172 3053 
L 172 3500 
L 594 3500 
L 594 4494 
L 1172 4494 
z
" id="DejaVuSans-74" transform="scale(0.015625)"/>
       </defs>
       <use xlink:href="#DejaVuSans-31"/>
       <use x="63.623047" xlink:href="#DejaVuSans-73"/>
       <use x="115.722656" xlink:href="#DejaVuSans-74"/>
      </g>
     </g>
    </g>
    <g id="xtick_2">
     <g id="line2d_2">
      <g>
       <use style="stroke:#000000;stroke-width:0.8;" x="216.818182" xlink:href="#m08de98d4b8" y="320.4"/>
      </g>
     </g>
     <g id="text_2">
      <!-- 2nd -->
      <g transform="translate(207.293963 334.998438)scale(0.1 -0.1)">
       <defs>
        <path d="M 1228 531 
L 3431 531 
L 3431 0 
L 469 0 
L 469 531 
Q 828 903 1448 1529 
Q 2069 2156 2228 2338 
Q 2531 2678 2651 2914 
Q 2772 3150 2772 3378 
Q 2772 3750 2511 3984 
Q 2250 4219 1831 4219 
Q 1534 4219 1204 4116 
Q 875 4013 500 3803 
L 500 4441 
Q 881 4594 1212 4672 
Q 1544 4750 1819 4750 
Q 2544 4750 2975 4387 
Q 3406 4025 3406 3419 
Q 3406 3131 3298 2873 
Q 3191 2616 2906 2266 
Q 2828 2175 2409 1742 
Q 1991 1309 1228 531 
z
" id="DejaVuSans-32" transform="scale(0.015625)"/>
        <path d="M 3513 2113 
L 3513 0 
L 2938 0 
L 2938 2094 
Q 2938 2591 2744 2837 
Q 2550 3084 2163 3084 
Q 1697 3084 1428 2787 
Q 1159 2491 1159 1978 
L 1159 0 
L 581 0 
L 581 3500 
L 1159 3500 
L 1159 2956 
Q 1366 3272 1645 3428 
Q 1925 3584 2291 3584 
Q 2894 3584 3203 3211 
Q 3513 2838 3513 2113 
z
" id="DejaVuSans-6e" transform="scale(0.015625)"/>
        <path d="M 2906 2969 
L 2906 4863 
L 3481 4863 
L 3481 0 
L 2906 0 
L 2906 525 
Q 2725 213 2448 61 
Q 2172 -91 1784 -91 
Q 1150 -91 751 415 
Q 353 922 353 1747 
Q 353 2572 751 3078 
Q 1150 3584 1784 3584 
Q 2172 3584 2448 3432 
Q 2725 3281 2906 2969 
z
M 947 1747 
Q 947 1113 1208 752 
Q 1469 391 1925 391 
Q 2381 391 2643 752 
Q 2906 1113 2906 1747 
Q 2906 2381 2643 2742 
Q 2381 3103 1925 3103 
Q 1469 3103 1208 2742 
Q 947 2381 947 1747 
z
" id="DejaVuSans-64" transform="scale(0.015625)"/>
       </defs>
       <use xlink:href="#DejaVuSans-32"/>
       <use x="63.623047" xlink:href="#DejaVuSans-6e"/>
       <use x="127.001953" xlink:href="#DejaVuSans-64"/>
      </g>
     </g>
    </g>
    <g id="xtick_3">
     <g id="line2d_3">
      <g>
       <use style="stroke:#000000;stroke-width:0.8;" x="309.049587" xlink:href="#m08de98d4b8" y="320.4"/>
      </g>
     </g>
     <g id="text_3">
      <!-- 3rd -->
      <g transform="translate(300.726149 334.998438)scale(0.1 -0.1)">
       <defs>
        <path d="M 2597 2516 
Q 3050 2419 3304 2112 
Q 3559 1806 3559 1356 
Q 3559 666 3084 287 
Q 2609 -91 1734 -91 
Q 1441 -91 1130 -33 
Q 819 25 488 141 
L 488 750 
Q 750 597 1062 519 
Q 1375 441 1716 441 
Q 2309 441 2620 675 
Q 2931 909 2931 1356 
Q 2931 1769 2642 2001 
Q 2353 2234 1838 2234 
L 1294 2234 
L 1294 2753 
L 1863 2753 
Q 2328 2753 2575 2939 
Q 2822 3125 2822 3475 
Q 2822 3834 2567 4026 
Q 2313 4219 1838 4219 
Q 1578 4219 1281 4162 
Q 984 4106 628 3988 
L 628 4550 
Q 988 4650 1302 4700 
Q 1616 4750 1894 4750 
Q 2613 4750 3031 4423 
Q 3450 4097 3450 3541 
Q 3450 3153 3228 2886 
Q 3006 2619 2597 2516 
z
" id="DejaVuSans-33" transform="scale(0.015625)"/>
        <path d="M 2631 2963 
Q 2534 3019 2420 3045 
Q 2306 3072 2169 3072 
Q 1681 3072 1420 2755 
Q 1159 2438 1159 1844 
L 1159 0 
L 581 0 
L 581 3500 
L 1159 3500 
L 1159 2956 
Q 1341 3275 1631 3429 
Q 1922 3584 2338 3584 
Q 2397 3584 2469 3576 
Q 2541 3569 2628 3553 
L 2631 2963 
z
" id="DejaVuSans-72" transform="scale(0.015625)"/>
       </defs>
       <use xlink:href="#DejaVuSans-33"/>
       <use x="63.623047" xlink:href="#DejaVuSans-72"/>
       <use x="102.986328" xlink:href="#DejaVuSans-64"/>
      </g>
     </g>
    </g>
    <g id="text_4">
     <!-- Class -->
     <g transform="translate(203.664276 348.676562)scale(0.1 -0.1)">
      <defs>
       <path d="M 4122 4306 
L 4122 3641 
Q 3803 3938 3442 4084 
Q 3081 4231 2675 4231 
Q 1875 4231 1450 3742 
Q 1025 3253 1025 2328 
Q 1025 1406 1450 917 
Q 1875 428 2675 428 
Q 3081 428 3442 575 
Q 3803 722 4122 1019 
L 4122 359 
Q 3791 134 3420 21 
Q 3050 -91 2638 -91 
Q 1578 -91 968 557 
Q 359 1206 359 2328 
Q 359 3453 968 4101 
Q 1578 4750 2638 4750 
Q 3056 4750 3426 4639 
Q 3797 4528 4122 4306 
z
" id="DejaVuSans-43" transform="scale(0.015625)"/>
       <path d="M 603 4863 
L 1178 4863 
L 1178 0 
L 603 0 
L 603 4863 
z
" id="DejaVuSans-6c" transform="scale(0.015625)"/>
       <path d="M 2194 1759 
Q 1497 1759 1228 1600 
Q 959 1441 959 1056 
Q 959 750 1161 570 
Q 1363 391 1709 391 
Q 2188 391 2477 730 
Q 2766 1069 2766 1631 
L 2766 1759 
L 2194 1759 
z
M 3341 1997 
L 3341 0 
L 2766 0 
L 2766 531 
Q 2569 213 2275 61 
Q 1981 -91 1556 -91 
Q 1019 -91 701 211 
Q 384 513 384 1019 
Q 384 1609 779 1909 
Q 1175 2209 1959 2209 
L 2766 2209 
L 2766 2266 
Q 2766 2663 2505 2880 
Q 2244 3097 1772 3097 
Q 1472 3097 1187 3025 
Q 903 2953 641 2809 
L 641 3341 
Q 956 3463 1253 3523 
Q 1550 3584 1831 3584 
Q 2591 3584 2966 3190 
Q 3341 2797 3341 1997 
z
" id="DejaVuSans-61" transform="scale(0.015625)"/>
      </defs>
      <use xlink:href="#DejaVuSans-43"/>
      <use x="69.824219" xlink:href="#DejaVuSans-6c"/>
      <use x="97.607422" xlink:href="#DejaVuSans-61"/>
      <use x="158.886719" xlink:href="#DejaVuSans-73"/>
      <use x="210.986328" xlink:href="#DejaVuSans-73"/>
     </g>
    </g>
   </g>
   <g id="matplotlib.axis_2">
    <g id="ytick_1">
     <g id="line2d_4">
      <path clip-path="url(#p597e0685c9)" d="M 90 309.285265 
L 343.636364 309.285265 
" style="fill:none;stroke:#b0b0b0;stroke-linecap:square;stroke-width:0.8;"/>
     </g>
     <g id="line2d_5">
      <defs>
       <path d="M 0 0 
L -3.5 0 
" id="m7d8341266a" style="stroke:#000000;stroke-width:0.8;"/>
      </defs>
      <g>
       <use style="stroke:#000000;stroke-width:0.8;" x="90" xlink:href="#m7d8341266a" y="309.285265"/>
      </g>
     </g>
     <g id="text_5">
      <!-- 0 -->
      <g transform="translate(76.6375 313.084484)scale(0.1 -0.1)">
       <defs>
        <path d="M 2034 4250 
Q 1547 4250 1301 3770 
Q 1056 3291 1056 2328 
Q 1056 1369 1301 889 
Q 1547 409 2034 409 
Q 2525 409 2770 889 
Q 3016 1369 3016 2328 
Q 3016 3291 2770 3770 
Q 2525 4250 2034 4250 
z
M 2034 4750 
Q 2819 4750 3233 4129 
Q 3647 3509 3647 2328 
Q 3647 1150 3233 529 
Q 2819 -91 2034 -91 
Q 1250 -91 836 529 
Q 422 1150 422 2328 
Q 422 3509 836 4129 
Q 1250 4750 2034 4750 
z
" id="DejaVuSans-30" transform="scale(0.015625)"/>
       </defs>
       <use xlink:href="#DejaVuSans-30"/>
      </g>
     </g>
    </g>
    <g id="ytick_2">
     <g id="line2d_6">
      <path clip-path="url(#p597e0685c9)" d="M 90 259.776424 
L 343.636364 259.776424 
" style="fill:none;stroke:#b0b0b0;stroke-linecap:square;stroke-width:0.8;"/>
     </g>
     <g id="line2d_7">
      <g>
       <use style="stroke:#000000;stroke-width:0.8;" x="90" xlink:href="#m7d8341266a" y="259.776424"/>
      </g>
     </g>
     <g id="text_6">
      <!-- 100 -->
      <g transform="translate(63.9125 263.575643)scale(0.1 -0.1)">
       <use xlink:href="#DejaVuSans-31"/>
       <use x="63.623047" xlink:href="#DejaVuSans-30"/>
       <use x="127.246094" xlink:href="#DejaVuSans-30"/>
      </g>
     </g>
    </g>
    <g id="ytick_3">
     <g id="line2d_8">
      <path clip-path="url(#p597e0685c9)" d="M 90 210.267583 
L 343.636364 210.267583 
" style="fill:none;stroke:#b0b0b0;stroke-linecap:square;stroke-width:0.8;"/>
     </g>
     <g id="line2d_9">
      <g>
       <use style="stroke:#000000;stroke-width:0.8;" x="90" xlink:href="#m7d8341266a" y="210.267583"/>
      </g>
     </g>
     <g id="text_7">
      <!-- 200 -->
      <g transform="translate(63.9125 214.066802)scale(0.1 -0.1)">
       <use xlink:href="#DejaVuSans-32"/>
       <use x="63.623047" xlink:href="#DejaVuSans-30"/>
       <use x="127.246094" xlink:href="#DejaVuSans-30"/>
      </g>
     </g>
    </g>
    <g id="ytick_4">
     <g id="line2d_10">
      <path clip-path="url(#p597e0685c9)" d="M 90 160.758743 
L 343.636364 160.758743 
" style="fill:none;stroke:#b0b0b0;stroke-linecap:square;stroke-width:0.8;"/>
     </g>
     <g id="line2d_11">
      <g>
       <use style="stroke:#000000;stroke-width:0.8;" x="90" xlink:href="#m7d8341266a" y="160.758743"/>
      </g>
     </g>
     <g id="text_8">
      <!-- 300 -->
      <g transform="translate(63.9125 164.557961)scale(0.1 -0.1)">
       <use xlink:href="#DejaVuSans-33"/>
       <use x="63.623047" xlink:href="#DejaVuSans-30"/>
       <use x="127.246094" xlink:href="#DejaVuSans-30"/>
      </g>
     </g>
    </g>
    <g id="ytick_5">
     <g id="line2d_12">
      <path clip-path="url(#p597e0685c9)" d="M 90 111.249902 
L 343.636364 111.249902 
" style="fill:none;stroke:#b0b0b0;stroke-linecap:square;stroke-width:0.8;"/>
     </g>
     <g id="line2d_13">
      <g>
       <use style="stroke:#000000;stroke-width:0.8;" x="90" xlink:href="#m7d8341266a" y="111.249902"/>
      </g>
     </g>
     <g id="text_9">
      <!-- 400 -->
      <g transform="translate(63.9125 115.049121)scale(0.1 -0.1)">
       <defs>
        <path d="M 2419 4116 
L 825 1625 
L 2419 1625 
L 2419 4116 
z
M 2253 4666 
L 3047 4666 
L 3047 1625 
L 3713 1625 
L 3713 1100 
L 3047 1100 
L 3047 0 
L 2419 0 
L 2419 1100 
L 313 1100 
L 313 1709 
L 2253 4666 
z
" id="DejaVuSans-34" transform="scale(0.015625)"/>
       </defs>
       <use xlink:href="#DejaVuSans-34"/>
       <use x="63.623047" xlink:href="#DejaVuSans-30"/>
       <use x="127.246094" xlink:href="#DejaVuSans-30"/>
      </g>
     </g>
    </g>
    <g id="ytick_6">
     <g id="line2d_14">
      <path clip-path="url(#p597e0685c9)" d="M 90 61.741061 
L 343.636364 61.741061 
" style="fill:none;stroke:#b0b0b0;stroke-linecap:square;stroke-width:0.8;"/>
     </g>
     <g id="line2d_15">
      <g>
       <use style="stroke:#000000;stroke-width:0.8;" x="90" xlink:href="#m7d8341266a" y="61.741061"/>
      </g>
     </g>
     <g id="text_10">
      <!-- 500 -->
      <g transform="translate(63.9125 65.54028)scale(0.1 -0.1)">
       <defs>
        <path d="M 691 4666 
L 3169 4666 
L 3169 4134 
L 1269 4134 
L 1269 2991 
Q 1406 3038 1543 3061 
Q 1681 3084 1819 3084 
Q 2600 3084 3056 2656 
Q 3513 2228 3513 1497 
Q 3513 744 3044 326 
Q 2575 -91 1722 -91 
Q 1428 -91 1123 -41 
Q 819 9 494 109 
L 494 744 
Q 775 591 1075 516 
Q 1375 441 1709 441 
Q 2250 441 2565 725 
Q 2881 1009 2881 1497 
Q 2881 1984 2565 2268 
Q 2250 2553 1709 2553 
Q 1456 2553 1204 2497 
Q 953 2441 691 2322 
L 691 4666 
z
" id="DejaVuSans-35" transform="scale(0.015625)"/>
       </defs>
       <use xlink:href="#DejaVuSans-35"/>
       <use x="63.623047" xlink:href="#DejaVuSans-30"/>
       <use x="127.246094" xlink:href="#DejaVuSans-30"/>
      </g>
     </g>
    </g>
    <g id="text_11">
     <!-- Fare in $ -->
     <g transform="translate(57.832812 203.220312)rotate(-90)scale(0.1 -0.1)">
      <defs>
       <path d="M 628 4666 
L 3309 4666 
L 3309 4134 
L 1259 4134 
L 1259 2759 
L 3109 2759 
L 3109 2228 
L 1259 2228 
L 1259 0 
L 628 0 
L 628 4666 
z
" id="DejaVuSans-46" transform="scale(0.015625)"/>
       <path d="M 3597 1894 
L 3597 1613 
L 953 1613 
Q 991 1019 1311 708 
Q 1631 397 2203 397 
Q 2534 397 2845 478 
Q 3156 559 3463 722 
L 3463 178 
Q 3153 47 2828 -22 
Q 2503 -91 2169 -91 
Q 1331 -91 842 396 
Q 353 884 353 1716 
Q 353 2575 817 3079 
Q 1281 3584 2069 3584 
Q 2775 3584 3186 3129 
Q 3597 2675 3597 1894 
z
M 3022 2063 
Q 3016 2534 2758 2815 
Q 2500 3097 2075 3097 
Q 1594 3097 1305 2825 
Q 1016 2553 972 2059 
L 3022 2063 
z
" id="DejaVuSans-65" transform="scale(0.015625)"/>
       <path id="DejaVuSans-20" transform="scale(0.015625)"/>
       <path d="M 603 3500 
L 1178 3500 
L 1178 0 
L 603 0 
L 603 3500 
z
M 603 4863 
L 1178 4863 
L 1178 4134 
L 603 4134 
L 603 4863 
z
" id="DejaVuSans-69" transform="scale(0.015625)"/>
       <path d="M 2163 -941 
L 1850 -941 
L 1847 0 
Q 1519 6 1191 76 
Q 863 147 531 288 
L 531 850 
Q 850 650 1176 548 
Q 1503 447 1850 444 
L 1850 1869 
Q 1159 1981 845 2250 
Q 531 2519 531 2988 
Q 531 3497 872 3790 
Q 1213 4084 1850 4128 
L 1850 4863 
L 2163 4863 
L 2163 4138 
Q 2453 4125 2725 4076 
Q 2997 4028 3256 3944 
L 3256 3397 
Q 2997 3528 2723 3600 
Q 2450 3672 2163 3684 
L 2163 2350 
Q 2872 2241 3206 1959 
Q 3541 1678 3541 1191 
Q 3541 663 3186 358 
Q 2831 53 2163 6 
L 2163 -941 
z
M 1850 2406 
L 1850 3688 
Q 1488 3647 1297 3481 
Q 1106 3316 1106 3041 
Q 1106 2772 1282 2622 
Q 1459 2472 1850 2406 
z
M 2163 1806 
L 2163 453 
Q 2559 506 2761 678 
Q 2963 850 2963 1131 
Q 2963 1406 2770 1568 
Q 2578 1731 2163 1806 
z
" id="DejaVuSans-24" transform="scale(0.015625)"/>
      </defs>
      <use xlink:href="#DejaVuSans-46"/>
      <use x="48.394531" xlink:href="#DejaVuSans-61"/>
      <use x="109.673828" xlink:href="#DejaVuSans-72"/>
      <use x="148.537109" xlink:href="#DejaVuSans-65"/>
      <use x="210.060547" xlink:href="#DejaVuSans-20"/>
      <use x="241.847656" xlink:href="#DejaVuSans-69"/>
      <use x="269.630859" xlink:href="#DejaVuSans-6e"/>
      <use x="333.009766" xlink:href="#DejaVuSans-20"/>
      <use x="364.796875" xlink:href="#DejaVuSans-24"/>
     </g>
    </g>
   </g>
   <g id="LineCollection_1">
    <path clip-path="url(#p597e0685c9)" d="M 113.057851 55.8 
L 136.115702 55.8 
" style="fill:none;stroke:#1f77b4;stroke-width:1.5;"/>
    <path clip-path="url(#p597e0685c9)" d="M 205.289256 273.143811 
L 228.347107 273.143811 
" style="fill:none;stroke:#1f77b4;stroke-width:1.5;"/>
    <path clip-path="url(#p597e0685c9)" d="M 297.520661 275.124165 
L 320.578512 275.124165 
" style="fill:none;stroke:#1f77b4;stroke-width:1.5;"/>
   </g>
   <g id="LineCollection_2">
    <path clip-path="url(#p597e0685c9)" d="M 113.057851 306.809823 
L 136.115702 306.809823 
" style="fill:none;stroke:#1f77b4;stroke-width:1.5;"/>
    <path clip-path="url(#p597e0685c9)" d="M 205.289256 304.82947 
L 228.347107 304.82947 
" style="fill:none;stroke:#1f77b4;stroke-width:1.5;"/>
    <path clip-path="url(#p597e0685c9)" d="M 297.520661 307.8 
L 320.578512 307.8 
" style="fill:none;stroke:#1f77b4;stroke-width:1.5;"/>
   </g>
   <g id="LineCollection_3">
    <path clip-path="url(#p597e0685c9)" d="M 124.586777 306.809823 
L 124.586777 55.8 
" style="fill:none;stroke:#1f77b4;stroke-width:1.5;"/>
    <path clip-path="url(#p597e0685c9)" d="M 216.818182 304.82947 
L 216.818182 273.143811 
" style="fill:none;stroke:#1f77b4;stroke-width:1.5;"/>
    <path clip-path="url(#p597e0685c9)" d="M 309.049587 307.8 
L 309.049587 275.124165 
" style="fill:none;stroke:#1f77b4;stroke-width:1.5;"/>
   </g>
   <g id="LineCollection_4">
    <path clip-path="url(#p597e0685c9)" d="M 113.057851 279.084872 
L 136.115702 279.084872 
" style="fill:none;stroke:#1f77b4;stroke-width:1.5;"/>
    <path clip-path="url(#p597e0685c9)" d="M 205.289256 301.858939 
L 228.347107 301.858939 
" style="fill:none;stroke:#1f77b4;stroke-width:1.5;"/>
    <path clip-path="url(#p597e0685c9)" d="M 297.520661 305.324558 
L 320.578512 305.324558 
" style="fill:none;stroke:#1f77b4;stroke-width:1.5;"/>
   </g>
   <g id="patch_3">
    <path d="M 90 320.4 
L 90 43.2 
" style="fill:none;stroke:#000000;stroke-linecap:square;stroke-linejoin:miter;stroke-width:0.8;"/>
   </g>
   <g id="patch_4">
    <path d="M 343.636364 320.4 
L 343.636364 43.2 
" style="fill:none;stroke:#000000;stroke-linecap:square;stroke-linejoin:miter;stroke-width:0.8;"/>
   </g>
   <g id="patch_5">
    <path d="M 90 320.4 
L 343.636364 320.4 
" style="fill:none;stroke:#000000;stroke-linecap:square;stroke-linejoin:miter;stroke-width:0.8;"/>
   </g>
   <g id="patch_6">
    <path d="M 90 43.2 
L 343.636364 43.2 
" style="fill:none;stroke:#000000;stroke-linecap:square;stroke-linejoin:miter;stroke-width:0.8;"/>
   </g>
   <g id="text_12">
    <!-- Violin Plot -->
    <g transform="translate(187.159432 37.2)scale(0.12 -0.12)">
     <defs>
      <path d="M 1831 0 
L 50 4666 
L 709 4666 
L 2188 738 
L 3669 4666 
L 4325 4666 
L 2547 0 
L 1831 0 
z
" id="DejaVuSans-56" transform="scale(0.015625)"/>
      <path d="M 1959 3097 
Q 1497 3097 1228 2736 
Q 959 2375 959 1747 
Q 959 1119 1226 758 
Q 1494 397 1959 397 
Q 2419 397 2687 759 
Q 2956 1122 2956 1747 
Q 2956 2369 2687 2733 
Q 2419 3097 1959 3097 
z
M 1959 3584 
Q 2709 3584 3137 3096 
Q 3566 2609 3566 1747 
Q 3566 888 3137 398 
Q 2709 -91 1959 -91 
Q 1206 -91 779 398 
Q 353 888 353 1747 
Q 353 2609 779 3096 
Q 1206 3584 1959 3584 
z
" id="DejaVuSans-6f" transform="scale(0.015625)"/>
      <path d="M 1259 4147 
L 1259 2394 
L 2053 2394 
Q 2494 2394 2734 2622 
Q 2975 2850 2975 3272 
Q 2975 3691 2734 3919 
Q 2494 4147 2053 4147 
L 1259 4147 
z
M 628 4666 
L 2053 4666 
Q 2838 4666 3239 4311 
Q 3641 3956 3641 3272 
Q 3641 2581 3239 2228 
Q 2838 1875 2053 1875 
L 1259 1875 
L 1259 0 
L 628 0 
L 628 4666 
z
" id="DejaVuSans-50" transform="scale(0.015625)"/>
     </defs>
     <use xlink:href="#DejaVuSans-56"/>
     <use x="66.158203" xlink:href="#DejaVuSans-69"/>
     <use x="93.941406" xlink:href="#DejaVuSans-6f"/>
     <use x="155.123047" xlink:href="#DejaVuSans-6c"/>
     <use x="182.90625" xlink:href="#DejaVuSans-69"/>
     <use x="210.689453" xlink:href="#DejaVuSans-6e"/>
     <use x="274.068359" xlink:href="#DejaVuSans-20"/>
     <use x="305.855469" xlink:href="#DejaVuSans-50"/>
     <use x="366.158203" xlink:href="#DejaVuSans-6c"/>
     <use x="393.941406" xlink:href="#DejaVuSans-6f"/>
     <use x="455.123047" xlink:href="#DejaVuSans-74"/>
    </g>
   </g>
  </g>
  <g id="axes_2">
   <g id="patch_7">
    <path d="M 394.363636 320.4 
L 648 320.4 
L 648 43.2 
L 394.363636 43.2 
z
" style="fill:#ffffff;"/>
   </g>
   <g id="matplotlib.axis_3">
    <g id="xtick_4">
     <g id="line2d_16">
      <g>
       <use style="stroke:#000000;stroke-width:0.8;" x="436.636364" xlink:href="#m08de98d4b8" y="320.4"/>
      </g>
     </g>
     <g id="text_13">
      <!-- 1st -->
      <g transform="translate(428.89027 334.998438)scale(0.1 -0.1)">
       <use xlink:href="#DejaVuSans-31"/>
       <use x="63.623047" xlink:href="#DejaVuSans-73"/>
       <use x="115.722656" xlink:href="#DejaVuSans-74"/>
      </g>
     </g>
    </g>
    <g id="xtick_5">
     <g id="line2d_17">
      <g>
       <use style="stroke:#000000;stroke-width:0.8;" x="521.181818" xlink:href="#m08de98d4b8" y="320.4"/>
      </g>
     </g>
     <g id="text_14">
      <!-- 2nd -->
      <g transform="translate(511.657599 334.998438)scale(0.1 -0.1)">
       <use xlink:href="#DejaVuSans-32"/>
       <use x="63.623047" xlink:href="#DejaVuSans-6e"/>
       <use x="127.001953" xlink:href="#DejaVuSans-64"/>
      </g>
     </g>
    </g>
    <g id="xtick_6">
     <g id="line2d_18">
      <g>
       <use style="stroke:#000000;stroke-width:0.8;" x="605.727273" xlink:href="#m08de98d4b8" y="320.4"/>
      </g>
     </g>
     <g id="text_15">
      <!-- 3rd -->
      <g transform="translate(597.403835 334.998438)scale(0.1 -0.1)">
       <use xlink:href="#DejaVuSans-33"/>
       <use x="63.623047" xlink:href="#DejaVuSans-72"/>
       <use x="102.986328" xlink:href="#DejaVuSans-64"/>
      </g>
     </g>
    </g>
    <g id="text_16">
     <!-- Class -->
     <g transform="translate(508.027912 348.676562)scale(0.1 -0.1)">
      <use xlink:href="#DejaVuSans-43"/>
      <use x="69.824219" xlink:href="#DejaVuSans-6c"/>
      <use x="97.607422" xlink:href="#DejaVuSans-61"/>
      <use x="158.886719" xlink:href="#DejaVuSans-73"/>
      <use x="210.986328" xlink:href="#DejaVuSans-73"/>
     </g>
    </g>
   </g>
   <g id="matplotlib.axis_4">
    <g id="ytick_7">
     <g id="line2d_19">
      <path clip-path="url(#p0e384b839e)" d="M 394.363636 309.285265 
L 648 309.285265 
" style="fill:none;stroke:#b0b0b0;stroke-linecap:square;stroke-width:0.8;"/>
     </g>
     <g id="line2d_20">
      <g>
       <use style="stroke:#000000;stroke-width:0.8;" x="394.363636" xlink:href="#m7d8341266a" y="309.285265"/>
      </g>
     </g>
     <g id="text_17">
      <!-- 0 -->
      <g transform="translate(381.001136 313.084484)scale(0.1 -0.1)">
       <use xlink:href="#DejaVuSans-30"/>
      </g>
     </g>
    </g>
    <g id="ytick_8">
     <g id="line2d_21">
      <path clip-path="url(#p0e384b839e)" d="M 394.363636 259.776424 
L 648 259.776424 
" style="fill:none;stroke:#b0b0b0;stroke-linecap:square;stroke-width:0.8;"/>
     </g>
     <g id="line2d_22">
      <g>
       <use style="stroke:#000000;stroke-width:0.8;" x="394.363636" xlink:href="#m7d8341266a" y="259.776424"/>
      </g>
     </g>
     <g id="text_18">
      <!-- 100 -->
      <g transform="translate(368.276136 263.575643)scale(0.1 -0.1)">
       <use xlink:href="#DejaVuSans-31"/>
       <use x="63.623047" xlink:href="#DejaVuSans-30"/>
       <use x="127.246094" xlink:href="#DejaVuSans-30"/>
      </g>
     </g>
    </g>
    <g id="ytick_9">
     <g id="line2d_23">
      <path clip-path="url(#p0e384b839e)" d="M 394.363636 210.267583 
L 648 210.267583 
" style="fill:none;stroke:#b0b0b0;stroke-linecap:square;stroke-width:0.8;"/>
     </g>
     <g id="line2d_24">
      <g>
       <use style="stroke:#000000;stroke-width:0.8;" x="394.363636" xlink:href="#m7d8341266a" y="210.267583"/>
      </g>
     </g>
     <g id="text_19">
      <!-- 200 -->
      <g transform="translate(368.276136 214.066802)scale(0.1 -0.1)">
       <use xlink:href="#DejaVuSans-32"/>
       <use x="63.623047" xlink:href="#DejaVuSans-30"/>
       <use x="127.246094" xlink:href="#DejaVuSans-30"/>
      </g>
     </g>
    </g>
    <g id="ytick_10">
     <g id="line2d_25">
      <path clip-path="url(#p0e384b839e)" d="M 394.363636 160.758743 
L 648 160.758743 
" style="fill:none;stroke:#b0b0b0;stroke-linecap:square;stroke-width:0.8;"/>
     </g>
     <g id="line2d_26">
      <g>
       <use style="stroke:#000000;stroke-width:0.8;" x="394.363636" xlink:href="#m7d8341266a" y="160.758743"/>
      </g>
     </g>
     <g id="text_20">
      <!-- 300 -->
      <g transform="translate(368.276136 164.557961)scale(0.1 -0.1)">
       <use xlink:href="#DejaVuSans-33"/>
       <use x="63.623047" xlink:href="#DejaVuSans-30"/>
       <use x="127.246094" xlink:href="#DejaVuSans-30"/>
      </g>
     </g>
    </g>
    <g id="ytick_11">
     <g id="line2d_27">
      <path clip-path="url(#p0e384b839e)" d="M 394.363636 111.249902 
L 648 111.249902 
" style="fill:none;stroke:#b0b0b0;stroke-linecap:square;stroke-width:0.8;"/>
     </g>
     <g id="line2d_28">
      <g>
       <use style="stroke:#000000;stroke-width:0.8;" x="394.363636" xlink:href="#m7d8341266a" y="111.249902"/>
      </g>
     </g>
     <g id="text_21">
      <!-- 400 -->
      <g transform="translate(368.276136 115.049121)scale(0.1 -0.1)">
       <use xlink:href="#DejaVuSans-34"/>
       <use x="63.623047" xlink:href="#DejaVuSans-30"/>
       <use x="127.246094" xlink:href="#DejaVuSans-30"/>
      </g>
     </g>
    </g>
    <g id="ytick_12">
     <g id="line2d_29">
      <path clip-path="url(#p0e384b839e)" d="M 394.363636 61.741061 
L 648 61.741061 
" style="fill:none;stroke:#b0b0b0;stroke-linecap:square;stroke-width:0.8;"/>
     </g>
     <g id="line2d_30">
      <g>
       <use style="stroke:#000000;stroke-width:0.8;" x="394.363636" xlink:href="#m7d8341266a" y="61.741061"/>
      </g>
     </g>
     <g id="text_22">
      <!-- 500 -->
      <g transform="translate(368.276136 65.54028)scale(0.1 -0.1)">
       <use xlink:href="#DejaVuSans-35"/>
       <use x="63.623047" xlink:href="#DejaVuSans-30"/>
       <use x="127.246094" xlink:href="#DejaVuSans-30"/>
      </g>
     </g>
    </g>
    <g id="text_23">
     <!-- Fare in $ -->
     <g transform="translate(362.196449 203.220312)rotate(-90)scale(0.1 -0.1)">
      <use xlink:href="#DejaVuSans-46"/>
      <use x="48.394531" xlink:href="#DejaVuSans-61"/>
      <use x="109.673828" xlink:href="#DejaVuSans-72"/>
      <use x="148.537109" xlink:href="#DejaVuSans-65"/>
      <use x="210.060547" xlink:href="#DejaVuSans-20"/>
      <use x="241.847656" xlink:href="#DejaVuSans-69"/>
      <use x="269.630859" xlink:href="#DejaVuSans-6e"/>
      <use x="333.009766" xlink:href="#DejaVuSans-20"/>
      <use x="364.796875" xlink:href="#DejaVuSans-24"/>
     </g>
    </g>
   </g>
   <g id="line2d_31">
    <path clip-path="url(#p0e384b839e)" d="M 423.954545 293.937525 
L 449.318182 293.937525 
L 449.318182 255.815717 
L 423.954545 255.815717 
L 423.954545 293.937525 
" style="fill:none;stroke:#000000;stroke-linecap:square;"/>
   </g>
   <g id="line2d_32">
    <path clip-path="url(#p0e384b839e)" d="M 436.636364 293.937525 
L 436.636364 306.809823 
" style="fill:none;stroke:#000000;stroke-linecap:square;"/>
   </g>
   <g id="line2d_33">
    <path clip-path="url(#p0e384b839e)" d="M 436.636364 255.815717 
L 436.636364 199.870727 
" style="fill:none;stroke:#000000;stroke-linecap:square;"/>
   </g>
   <g id="line2d_34">
    <path clip-path="url(#p0e384b839e)" d="M 430.295455 306.809823 
L 442.977273 306.809823 
" style="fill:none;stroke:#000000;stroke-linecap:square;"/>
   </g>
   <g id="line2d_35">
    <path clip-path="url(#p0e384b839e)" d="M 430.295455 199.870727 
L 442.977273 199.870727 
" style="fill:none;stroke:#000000;stroke-linecap:square;"/>
   </g>
   <g id="line2d_36">
    <defs>
     <path d="M 0 3 
C 0.795609 3 1.55874 2.683901 2.12132 2.12132 
C 2.683901 1.55874 3 0.795609 3 0 
C 3 -0.795609 2.683901 -1.55874 2.12132 -2.12132 
C 1.55874 -2.683901 0.795609 -3 0 -3 
C -0.795609 -3 -1.55874 -2.683901 -2.12132 -2.12132 
C -2.683901 -1.55874 -3 -0.795609 -3 0 
C -3 0.795609 -2.683901 1.55874 -2.12132 2.12132 
C -1.55874 2.683901 -0.795609 3 0 3 
z
" id="maf74da8805" style="stroke:#000000;"/>
    </defs>
    <g clip-path="url(#p0e384b839e)">
     <use style="fill-opacity:0;stroke:#000000;" x="436.636364" xlink:href="#maf74da8805" y="196.900196"/>
     <use style="fill-opacity:0;stroke:#000000;" x="436.636364" xlink:href="#maf74da8805" y="196.900196"/>
     <use style="fill-opacity:0;stroke:#000000;" x="436.636364" xlink:href="#maf74da8805" y="186.998428"/>
     <use style="fill-opacity:0;stroke:#000000;" x="436.636364" xlink:href="#maf74da8805" y="186.998428"/>
     <use style="fill-opacity:0;stroke:#000000;" x="436.636364" xlink:href="#maf74da8805" y="196.900196"/>
     <use style="fill-opacity:0;stroke:#000000;" x="436.636364" xlink:href="#maf74da8805" y="179.572102"/>
     <use style="fill-opacity:0;stroke:#000000;" x="436.636364" xlink:href="#maf74da8805" y="55.8"/>
     <use style="fill-opacity:0;stroke:#000000;" x="436.636364" xlink:href="#maf74da8805" y="55.8"/>
     <use style="fill-opacity:0;stroke:#000000;" x="436.636364" xlink:href="#maf74da8805" y="179.572102"/>
     <use style="fill-opacity:0;stroke:#000000;" x="436.636364" xlink:href="#maf74da8805" y="186.998428"/>
     <use style="fill-opacity:0;stroke:#000000;" x="436.636364" xlink:href="#maf74da8805" y="196.900196"/>
     <use style="fill-opacity:0;stroke:#000000;" x="436.636364" xlink:href="#maf74da8805" y="179.077014"/>
     <use style="fill-opacity:0;stroke:#000000;" x="436.636364" xlink:href="#maf74da8805" y="179.077014"/>
     <use style="fill-opacity:0;stroke:#000000;" x="436.636364" xlink:href="#maf74da8805" y="179.077014"/>
     <use style="fill-opacity:0;stroke:#000000;" x="436.636364" xlink:href="#maf74da8805" y="179.077014"/>
     <use style="fill-opacity:0;stroke:#000000;" x="436.636364" xlink:href="#maf74da8805" y="179.077014"/>
     <use style="fill-opacity:0;stroke:#000000;" x="436.636364" xlink:href="#maf74da8805" y="179.077014"/>
     <use style="fill-opacity:0;stroke:#000000;" x="436.636364" xlink:href="#maf74da8805" y="55.8"/>
     <use style="fill-opacity:0;stroke:#000000;" x="436.636364" xlink:href="#maf74da8805" y="196.900196"/>
     <use style="fill-opacity:0;stroke:#000000;" x="436.636364" xlink:href="#maf74da8805" y="179.572102"/>
     <use style="fill-opacity:0;stroke:#000000;" x="436.636364" xlink:href="#maf74da8805" y="179.572102"/>
     <use style="fill-opacity:0;stroke:#000000;" x="436.636364" xlink:href="#maf74da8805" y="179.572102"/>
     <use style="fill-opacity:0;stroke:#000000;" x="436.636364" xlink:href="#maf74da8805" y="179.572102"/>
     <use style="fill-opacity:0;stroke:#000000;" x="436.636364" xlink:href="#maf74da8805" y="179.572102"/>
     <use style="fill-opacity:0;stroke:#000000;" x="436.636364" xlink:href="#maf74da8805" y="55.8"/>
    </g>
   </g>
   <g id="line2d_37">
    <path clip-path="url(#p0e384b839e)" d="M 508.5 302.849116 
L 533.863636 302.849116 
L 533.863636 296.412967 
L 508.5 296.412967 
L 508.5 302.849116 
" style="fill:none;stroke:#000000;stroke-linecap:square;"/>
   </g>
   <g id="line2d_38">
    <path clip-path="url(#p0e384b839e)" d="M 521.181818 302.849116 
L 521.181818 304.82947 
" style="fill:none;stroke:#000000;stroke-linecap:square;"/>
   </g>
   <g id="line2d_39">
    <path clip-path="url(#p0e384b839e)" d="M 521.181818 296.412967 
L 521.181818 288.98664 
" style="fill:none;stroke:#000000;stroke-linecap:square;"/>
   </g>
   <g id="line2d_40">
    <path clip-path="url(#p0e384b839e)" d="M 514.840909 304.82947 
L 527.522727 304.82947 
" style="fill:none;stroke:#000000;stroke-linecap:square;"/>
   </g>
   <g id="line2d_41">
    <path clip-path="url(#p0e384b839e)" d="M 514.840909 288.98664 
L 527.522727 288.98664 
" style="fill:none;stroke:#000000;stroke-linecap:square;"/>
   </g>
   <g id="line2d_42">
    <g clip-path="url(#p0e384b839e)">
     <use style="fill-opacity:0;stroke:#000000;" x="521.181818" xlink:href="#maf74da8805" y="273.143811"/>
     <use style="fill-opacity:0;stroke:#000000;" x="521.181818" xlink:href="#maf74da8805" y="273.143811"/>
     <use style="fill-opacity:0;stroke:#000000;" x="521.181818" xlink:href="#maf74da8805" y="273.143811"/>
     <use style="fill-opacity:0;stroke:#000000;" x="521.181818" xlink:href="#maf74da8805" y="277.104519"/>
     <use style="fill-opacity:0;stroke:#000000;" x="521.181818" xlink:href="#maf74da8805" y="277.104519"/>
     <use style="fill-opacity:0;stroke:#000000;" x="521.181818" xlink:href="#maf74da8805" y="277.104519"/>
     <use style="fill-opacity:0;stroke:#000000;" x="521.181818" xlink:href="#maf74da8805" y="277.104519"/>
     <use style="fill-opacity:0;stroke:#000000;" x="521.181818" xlink:href="#maf74da8805" y="273.143811"/>
     <use style="fill-opacity:0;stroke:#000000;" x="521.181818" xlink:href="#maf74da8805" y="273.143811"/>
     <use style="fill-opacity:0;stroke:#000000;" x="521.181818" xlink:href="#maf74da8805" y="273.143811"/>
     <use style="fill-opacity:0;stroke:#000000;" x="521.181818" xlink:href="#maf74da8805" y="273.143811"/>
     <use style="fill-opacity:0;stroke:#000000;" x="521.181818" xlink:href="#maf74da8805" y="277.104519"/>
    </g>
   </g>
   <g id="line2d_43">
    <path clip-path="url(#p0e384b839e)" d="M 593.045455 305.819646 
L 618.409091 305.819646 
L 618.409091 301.858939 
L 593.045455 301.858939 
L 593.045455 305.819646 
" style="fill:none;stroke:#000000;stroke-linecap:square;"/>
   </g>
   <g id="line2d_44">
    <path clip-path="url(#p0e384b839e)" d="M 605.727273 305.819646 
L 605.727273 307.8 
" style="fill:none;stroke:#000000;stroke-linecap:square;"/>
   </g>
   <g id="line2d_45">
    <path clip-path="url(#p0e384b839e)" d="M 605.727273 301.858939 
L 605.727273 295.917878 
" style="fill:none;stroke:#000000;stroke-linecap:square;"/>
   </g>
   <g id="line2d_46">
    <path clip-path="url(#p0e384b839e)" d="M 599.386364 307.8 
L 612.068182 307.8 
" style="fill:none;stroke:#000000;stroke-linecap:square;"/>
   </g>
   <g id="line2d_47">
    <path clip-path="url(#p0e384b839e)" d="M 599.386364 295.917878 
L 612.068182 295.917878 
" style="fill:none;stroke:#000000;stroke-linecap:square;"/>
   </g>
   <g id="line2d_48">
    <g clip-path="url(#p0e384b839e)">
     <use style="fill-opacity:0;stroke:#000000;" x="605.727273" xlink:href="#maf74da8805" y="293.937525"/>
     <use style="fill-opacity:0;stroke:#000000;" x="605.727273" xlink:href="#maf74da8805" y="293.937525"/>
     <use style="fill-opacity:0;stroke:#000000;" x="605.727273" xlink:href="#maf74da8805" y="293.937525"/>
     <use style="fill-opacity:0;stroke:#000000;" x="605.727273" xlink:href="#maf74da8805" y="293.937525"/>
     <use style="fill-opacity:0;stroke:#000000;" x="605.727273" xlink:href="#maf74da8805" y="293.937525"/>
     <use style="fill-opacity:0;stroke:#000000;" x="605.727273" xlink:href="#maf74da8805" y="293.937525"/>
     <use style="fill-opacity:0;stroke:#000000;" x="605.727273" xlink:href="#maf74da8805" y="293.937525"/>
     <use style="fill-opacity:0;stroke:#000000;" x="605.727273" xlink:href="#maf74da8805" y="293.937525"/>
     <use style="fill-opacity:0;stroke:#000000;" x="605.727273" xlink:href="#maf74da8805" y="293.937525"/>
     <use style="fill-opacity:0;stroke:#000000;" x="605.727273" xlink:href="#maf74da8805" y="293.937525"/>
     <use style="fill-opacity:0;stroke:#000000;" x="605.727273" xlink:href="#maf74da8805" y="293.937525"/>
     <use style="fill-opacity:0;stroke:#000000;" x="605.727273" xlink:href="#maf74da8805" y="293.937525"/>
     <use style="fill-opacity:0;stroke:#000000;" x="605.727273" xlink:href="#maf74da8805" y="293.937525"/>
     <use style="fill-opacity:0;stroke:#000000;" x="605.727273" xlink:href="#maf74da8805" y="293.937525"/>
     <use style="fill-opacity:0;stroke:#000000;" x="605.727273" xlink:href="#maf74da8805" y="281.560314"/>
     <use style="fill-opacity:0;stroke:#000000;" x="605.727273" xlink:href="#maf74da8805" y="281.560314"/>
     <use style="fill-opacity:0;stroke:#000000;" x="605.727273" xlink:href="#maf74da8805" y="281.560314"/>
     <use style="fill-opacity:0;stroke:#000000;" x="605.727273" xlink:href="#maf74da8805" y="292.452259"/>
     <use style="fill-opacity:0;stroke:#000000;" x="605.727273" xlink:href="#maf74da8805" y="292.452259"/>
     <use style="fill-opacity:0;stroke:#000000;" x="605.727273" xlink:href="#maf74da8805" y="292.452259"/>
     <use style="fill-opacity:0;stroke:#000000;" x="605.727273" xlink:href="#maf74da8805" y="292.452259"/>
     <use style="fill-opacity:0;stroke:#000000;" x="605.727273" xlink:href="#maf74da8805" y="292.452259"/>
     <use style="fill-opacity:0;stroke:#000000;" x="605.727273" xlink:href="#maf74da8805" y="286.511198"/>
     <use style="fill-opacity:0;stroke:#000000;" x="605.727273" xlink:href="#maf74da8805" y="286.511198"/>
     <use style="fill-opacity:0;stroke:#000000;" x="605.727273" xlink:href="#maf74da8805" y="286.511198"/>
     <use style="fill-opacity:0;stroke:#000000;" x="605.727273" xlink:href="#maf74da8805" y="286.511198"/>
     <use style="fill-opacity:0;stroke:#000000;" x="605.727273" xlink:href="#maf74da8805" y="286.511198"/>
     <use style="fill-opacity:0;stroke:#000000;" x="605.727273" xlink:href="#maf74da8805" y="286.511198"/>
     <use style="fill-opacity:0;stroke:#000000;" x="605.727273" xlink:href="#maf74da8805" y="286.511198"/>
     <use style="fill-opacity:0;stroke:#000000;" x="605.727273" xlink:href="#maf74da8805" y="286.511198"/>
     <use style="fill-opacity:0;stroke:#000000;" x="605.727273" xlink:href="#maf74da8805" y="281.560314"/>
     <use style="fill-opacity:0;stroke:#000000;" x="605.727273" xlink:href="#maf74da8805" y="281.560314"/>
     <use style="fill-opacity:0;stroke:#000000;" x="605.727273" xlink:href="#maf74da8805" y="281.560314"/>
     <use style="fill-opacity:0;stroke:#000000;" x="605.727273" xlink:href="#maf74da8805" y="281.560314"/>
     <use style="fill-opacity:0;stroke:#000000;" x="605.727273" xlink:href="#maf74da8805" y="281.560314"/>
     <use style="fill-opacity:0;stroke:#000000;" x="605.727273" xlink:href="#maf74da8805" y="289.976817"/>
     <use style="fill-opacity:0;stroke:#000000;" x="605.727273" xlink:href="#maf74da8805" y="289.976817"/>
     <use style="fill-opacity:0;stroke:#000000;" x="605.727273" xlink:href="#maf74da8805" y="289.976817"/>
     <use style="fill-opacity:0;stroke:#000000;" x="605.727273" xlink:href="#maf74da8805" y="289.976817"/>
     <use style="fill-opacity:0;stroke:#000000;" x="605.727273" xlink:href="#maf74da8805" y="289.976817"/>
     <use style="fill-opacity:0;stroke:#000000;" x="605.727273" xlink:href="#maf74da8805" y="289.976817"/>
     <use style="fill-opacity:0;stroke:#000000;" x="605.727273" xlink:href="#maf74da8805" y="294.927701"/>
     <use style="fill-opacity:0;stroke:#000000;" x="605.727273" xlink:href="#maf74da8805" y="294.927701"/>
     <use style="fill-opacity:0;stroke:#000000;" x="605.727273" xlink:href="#maf74da8805" y="294.927701"/>
     <use style="fill-opacity:0;stroke:#000000;" x="605.727273" xlink:href="#maf74da8805" y="294.927701"/>
     <use style="fill-opacity:0;stroke:#000000;" x="605.727273" xlink:href="#maf74da8805" y="294.927701"/>
     <use style="fill-opacity:0;stroke:#000000;" x="605.727273" xlink:href="#maf74da8805" y="294.927701"/>
     <use style="fill-opacity:0;stroke:#000000;" x="605.727273" xlink:href="#maf74da8805" y="289.976817"/>
     <use style="fill-opacity:0;stroke:#000000;" x="605.727273" xlink:href="#maf74da8805" y="275.124165"/>
     <use style="fill-opacity:0;stroke:#000000;" x="605.727273" xlink:href="#maf74da8805" y="275.124165"/>
     <use style="fill-opacity:0;stroke:#000000;" x="605.727273" xlink:href="#maf74da8805" y="275.124165"/>
     <use style="fill-opacity:0;stroke:#000000;" x="605.727273" xlink:href="#maf74da8805" y="275.124165"/>
     <use style="fill-opacity:0;stroke:#000000;" x="605.727273" xlink:href="#maf74da8805" y="275.124165"/>
     <use style="fill-opacity:0;stroke:#000000;" x="605.727273" xlink:href="#maf74da8805" y="275.124165"/>
     <use style="fill-opacity:0;stroke:#000000;" x="605.727273" xlink:href="#maf74da8805" y="275.124165"/>
     <use style="fill-opacity:0;stroke:#000000;" x="605.727273" xlink:href="#maf74da8805" y="275.124165"/>
     <use style="fill-opacity:0;stroke:#000000;" x="605.727273" xlink:href="#maf74da8805" y="275.124165"/>
     <use style="fill-opacity:0;stroke:#000000;" x="605.727273" xlink:href="#maf74da8805" y="275.124165"/>
     <use style="fill-opacity:0;stroke:#000000;" x="605.727273" xlink:href="#maf74da8805" y="275.124165"/>
    </g>
   </g>
   <g id="line2d_49">
    <path clip-path="url(#p0e384b839e)" d="M 423.954545 279.084872 
L 449.318182 279.084872 
" style="fill:none;stroke:#ff7f0e;stroke-linecap:square;"/>
   </g>
   <g id="line2d_50">
    <path clip-path="url(#p0e384b839e)" d="M 508.5 301.858939 
L 533.863636 301.858939 
" style="fill:none;stroke:#ff7f0e;stroke-linecap:square;"/>
   </g>
   <g id="line2d_51">
    <path clip-path="url(#p0e384b839e)" d="M 593.045455 305.324558 
L 618.409091 305.324558 
" style="fill:none;stroke:#ff7f0e;stroke-linecap:square;"/>
   </g>
   <g id="patch_8">
    <path d="M 394.363636 320.4 
L 394.363636 43.2 
" style="fill:none;stroke:#000000;stroke-linecap:square;stroke-linejoin:miter;stroke-width:0.8;"/>
   </g>
   <g id="patch_9">
    <path d="M 648 320.4 
L 648 43.2 
" style="fill:none;stroke:#000000;stroke-linecap:square;stroke-linejoin:miter;stroke-width:0.8;"/>
   </g>
   <g id="patch_10">
    <path d="M 394.363636 320.4 
L 648 320.4 
" style="fill:none;stroke:#000000;stroke-linecap:square;stroke-linejoin:miter;stroke-width:0.8;"/>
   </g>
   <g id="patch_11">
    <path d="M 394.363636 43.2 
L 648 43.2 
" style="fill:none;stroke:#000000;stroke-linecap:square;stroke-linejoin:miter;stroke-width:0.8;"/>
   </g>
   <g id="text_24">
    <!-- Box Plot -->
    <g transform="translate(496.815256 37.2)scale(0.12 -0.12)">
     <defs>
      <path d="M 1259 2228 
L 1259 519 
L 2272 519 
Q 2781 519 3026 730 
Q 3272 941 3272 1375 
Q 3272 1813 3026 2020 
Q 2781 2228 2272 2228 
L 1259 2228 
z
M 1259 4147 
L 1259 2741 
L 2194 2741 
Q 2656 2741 2882 2914 
Q 3109 3088 3109 3444 
Q 3109 3797 2882 3972 
Q 2656 4147 2194 4147 
L 1259 4147 
z
M 628 4666 
L 2241 4666 
Q 2963 4666 3353 4366 
Q 3744 4066 3744 3513 
Q 3744 3084 3544 2831 
Q 3344 2578 2956 2516 
Q 3422 2416 3680 2098 
Q 3938 1781 3938 1306 
Q 3938 681 3513 340 
Q 3088 0 2303 0 
L 628 0 
L 628 4666 
z
" id="DejaVuSans-42" transform="scale(0.015625)"/>
      <path d="M 3513 3500 
L 2247 1797 
L 3578 0 
L 2900 0 
L 1881 1375 
L 863 0 
L 184 0 
L 1544 1831 
L 300 3500 
L 978 3500 
L 1906 2253 
L 2834 3500 
L 3513 3500 
z
" id="DejaVuSans-78" transform="scale(0.015625)"/>
     </defs>
     <use xlink:href="#DejaVuSans-42"/>
     <use x="68.603516" xlink:href="#DejaVuSans-6f"/>
     <use x="126.660156" xlink:href="#DejaVuSans-78"/>
     <use x="185.839844" xlink:href="#DejaVuSans-20"/>
     <use x="217.626953" xlink:href="#DejaVuSans-50"/>
     <use x="277.929688" xlink:href="#DejaVuSans-6c"/>
     <use x="305.712891" xlink:href="#DejaVuSans-6f"/>
     <use x="366.894531" xlink:href="#DejaVuSans-74"/>
    </g>
   </g>
  </g>
  <g id="text_25">
   <!-- Fare of Each Class -->
   <g transform="translate(305.537812 16.318125)scale(0.12 -0.12)">
    <defs>
     <path d="M 2375 4863 
L 2375 4384 
L 1825 4384 
Q 1516 4384 1395 4259 
Q 1275 4134 1275 3809 
L 1275 3500 
L 2222 3500 
L 2222 3053 
L 1275 3053 
L 1275 0 
L 697 0 
L 697 3053 
L 147 3053 
L 147 3500 
L 697 3500 
L 697 3744 
Q 697 4328 969 4595 
Q 1241 4863 1831 4863 
L 2375 4863 
z
" id="DejaVuSans-66" transform="scale(0.015625)"/>
     <path d="M 628 4666 
L 3578 4666 
L 3578 4134 
L 1259 4134 
L 1259 2753 
L 3481 2753 
L 3481 2222 
L 1259 2222 
L 1259 531 
L 3634 531 
L 3634 0 
L 628 0 
L 628 4666 
z
" id="DejaVuSans-45" transform="scale(0.015625)"/>
     <path d="M 3122 3366 
L 3122 2828 
Q 2878 2963 2633 3030 
Q 2388 3097 2138 3097 
Q 1578 3097 1268 2742 
Q 959 2388 959 1747 
Q 959 1106 1268 751 
Q 1578 397 2138 397 
Q 2388 397 2633 464 
Q 2878 531 3122 666 
L 3122 134 
Q 2881 22 2623 -34 
Q 2366 -91 2075 -91 
Q 1284 -91 818 406 
Q 353 903 353 1747 
Q 353 2603 823 3093 
Q 1294 3584 2113 3584 
Q 2378 3584 2631 3529 
Q 2884 3475 3122 3366 
z
" id="DejaVuSans-63" transform="scale(0.015625)"/>
     <path d="M 3513 2113 
L 3513 0 
L 2938 0 
L 2938 2094 
Q 2938 2591 2744 2837 
Q 2550 3084 2163 3084 
Q 1697 3084 1428 2787 
Q 1159 2491 1159 1978 
L 1159 0 
L 581 0 
L 581 4863 
L 1159 4863 
L 1159 2956 
Q 1366 3272 1645 3428 
Q 1925 3584 2291 3584 
Q 2894 3584 3203 3211 
Q 3513 2838 3513 2113 
z
" id="DejaVuSans-68" transform="scale(0.015625)"/>
    </defs>
    <use xlink:href="#DejaVuSans-46"/>
    <use x="48.394531" xlink:href="#DejaVuSans-61"/>
    <use x="109.673828" xlink:href="#DejaVuSans-72"/>
    <use x="148.537109" xlink:href="#DejaVuSans-65"/>
    <use x="210.060547" xlink:href="#DejaVuSans-20"/>
    <use x="241.847656" xlink:href="#DejaVuSans-6f"/>
    <use x="303.029297" xlink:href="#DejaVuSans-66"/>
    <use x="338.234375" xlink:href="#DejaVuSans-20"/>
    <use x="370.021484" xlink:href="#DejaVuSans-45"/>
    <use x="433.205078" xlink:href="#DejaVuSans-61"/>
    <use x="494.484375" xlink:href="#DejaVuSans-63"/>
    <use x="549.464844" xlink:href="#DejaVuSans-68"/>
    <use x="612.84375" xlink:href="#DejaVuSans-20"/>
    <use x="644.630859" xlink:href="#DejaVuSans-43"/>
    <use x="714.455078" xlink:href="#DejaVuSans-6c"/>
    <use x="742.238281" xlink:href="#DejaVuSans-61"/>
    <use x="803.517578" xlink:href="#DejaVuSans-73"/>
    <use x="855.617188" xlink:href="#DejaVuSans-73"/>
   </g>
  </g>
 </g>
 <defs>
  <clipPath id="p597e0685c9">
   <rect height="277.2" width="253.636364" x="90" y="43.2"/>
  </clipPath>
  <clipPath id="p0e384b839e">
   <rect height="277.2" width="253.636364" x="394.363636" y="43.2"/>
  </clipPath>
 </defs>
</svg>
